<svg width="256" height="256" viewBox="0 0 256 256" fill="none"
  xmlns="http://www.w3.org/2000/svg">
  <g clip-path="url(#clip0_71_18)">
    <path d="M70.1503 207V53H136.59C153.75 53 167.024 56.4467 176.41 63.34C185.944 70.2333 190.71 79.9867 190.71 92.6C190.71 100.96 188.73 108 184.77 113.72C180.957 119.44 175.677 123.767 168.93 126.7C162.33 129.633 155.07 131.1 147.15 131.1L150.89 125.82C160.717 125.82 169.15 127.36 176.19 130.44C183.377 133.373 188.95 137.847 192.91 143.86C196.87 149.727 198.85 157.06 198.85 165.86C198.85 178.913 194.01 189.033 184.33 196.22C174.797 203.407 160.35 207 140.99 207H70.1503ZM86.4303 193.58H140.77C154.264 193.58 164.604 191.307 171.79 186.76C178.977 182.067 182.57 174.66 182.57 164.54C182.57 154.567 178.977 147.307 171.79 142.76C164.604 138.067 154.264 135.72 140.77 135.72H84.6703V122.3H135.49C147.81 122.3 157.344 119.953 164.09 115.26C170.984 110.567 174.43 103.6 174.43 94.36C174.43 84.9733 170.984 78.0067 164.09 73.46C157.344 68.7667 147.81 66.42 135.49 66.42H86.4303V193.58Z" fill="#0284C7"/>
  </g>
  <defs>
    <clipPath id="clip0_71_18">
      <rect width="256" height="256" fill="white"/>
    </clipPath>
  </defs>
</svg>
